<?xml version="1.0" encoding="UTF-8"?>
<!DOCTYPE svg PUBLIC "-//W3C//DTD SVG 1.1//EN" "http://www.w3.org/Graphics/SVG/1.1/DTD/svg11.dtd">
<svg xmlns="http://www.w3.org/2000/svg" xml:space="preserve" width="1572px" height="552px" version="1.1" style="shape-rendering:geometricPrecision; text-rendering:geometricPrecision; image-rendering:optimizeQuality; fill-rule:evenodd; clip-rule:evenodd" viewBox="0 0 364.63 128.05">
 <defs>
  <style type="text/css">
    .str {stroke:black;stroke-width:2.07;stroke-linecap:round;stroke-miterlimit:22.9256}
    .fil {fill:black;fill-rule:nonzero}
  </style>
 </defs>
 <g id="Layer_x0020_1">
  <metadata id="CorelCorpID_0Corel-Layer"/>
  <g id="_1882759945440">
   <path class="fil" d="M119.85 18.04c0.94,-4.08 1.43,-8.33 1.43,-12.69 0,-1.17 -0.03,-2.33 -0.1,-3.48l-19 0c0.02,0.25 0.03,0.5 0.03,0.76 0,6.86 -5.6,12.42 -12.5,12.42 -6.9,0 -12.5,-5.56 -12.5,-12.42 0,-0.26 0.01,-0.51 0.03,-0.76l-16.48 0 0 51.26c-2.06,-24.68 -20.1,-44.85 -43.83,-50.26 -4.1,-0.94 -8.37,-1.43 -12.76,-1.43 -1.18,0 -2.35,0.03 -3.51,0.1l0 4.91 16.01 15.9 -16.01 0 0 0.22 16.01 15.9 -16.01 0 0 0.22 16.01 15.9 -16.01 0 0 6.97 52.49 0c-25.35,1.6 -46.18,19.71 -51.71,43.62 -0.94,4.08 -1.44,8.32 -1.44,12.69 0,1.17 0.03,2.33 0.11,3.48l18.99 0c-0.01,-0.25 -0.02,-0.51 -0.02,-0.76 0,-6.86 5.59,-12.42 12.49,-12.42 6.91,0 12.51,5.56 12.51,12.42 0,0.25 -0.01,0.51 -0.03,0.76l16.47 0 0.1 -59.78 0.02 -0.01c24.73,-2.14 53.77,-20.03 59.21,-43.52zm-119.6 4.2l-0.03 0.11 0.14 0 -0.11 -0.11zm0 16.12l-0.03 0.11 0.14 0 -0.11 -0.11z"/>
   <path class="fil" d="M94.21 106.89l-13.15 13.15c-0.92,0.91 -2.42,0.91 -3.34,0l-13.3 -13.16c-0.92,-0.91 -0.62,-1.66 0.68,-1.66l28.42 0c1.29,0 1.6,0.75 0.69,1.67zm-3.79 -28.26l28.42 0c1.29,0 1.6,-0.74 0.68,-1.65l-13.3 -13.17c-0.92,-0.91 -2.43,-0.91 -3.34,0.01l-13.15 13.15c-0.92,0.91 -0.61,1.66 0.69,1.66zm12.05 21.6l-20.1 20.1c-0.92,0.91 -0.61,1.66 0.69,1.65l18.71 -0.1c1.3,0 2.36,-1.07 2.36,-2.36l0 -18.6c0,-1.29 -0.75,-1.6 -1.66,-0.69zm-21 -16.61l20.1 -20.09c0.91,-0.92 0.61,-1.66 -0.69,-1.66l-18.72 0.1c-1.29,0.01 -2.35,1.07 -2.35,2.37l0 18.59c0,1.3 0.75,1.61 1.66,0.69zm25.46 6.07c-0.92,-0.92 -1.67,-0.61 -1.67,0.69l0 28.42c0,1.29 0.75,1.6 1.66,0.68l13.16 -13.31c0.92,-0.92 0.91,-2.42 0,-3.33l-13.15 -13.15zm-29.92 4.47c0.92,0.92 1.66,0.61 1.66,-0.68l0 -28.42c0,-1.3 -0.74,-1.61 -1.65,-0.68l-13.17 13.3c-0.91,0.92 -0.9,2.42 0.01,3.34l13.15 13.14zm44.92 -12.04c-0.01,-1.29 -1.08,-2.35 -2.37,-2.35l-18.6 0c-1.29,0 -1.6,0.75 -0.69,1.66l20.1 20.1c0.91,0.91 1.66,0.6 1.65,-0.69l-0.09 -18.72zm-38.96 21.97c1.3,0 1.61,-0.75 0.69,-1.67l-20.1 -20.09c-0.91,-0.92 -1.65,-0.61 -1.64,0.69l0.09 18.72c0.01,1.29 1.07,2.35 2.37,2.35l18.59 0zm0 0z"/>
   <path class="fil" d="M188.98 39.7l0 -7.25 -29.06 0 0 -29.11 -7.25 0 0 36.36 36.31 0zm0 0z"/>
   <path class="fil" d="M232.58 39.7l0 -7.25 -29.05 0 0 -7.3 29.05 0 0 -7.25 -29.05 0 0 -7.25 29.05 0 0 -7.31 -36.3 0 0 36.36 36.3 0zm0 0z"/>
   <path class="fil" d="M276.18 39.7l0 -36.36 -36.3 0 0 36.36 7.25 0 0 -29.05 21.8 0 0 29.05 7.25 0zm0 0z"/>
   <path class="fil" d="M319.79 39.7l0 -21.8 -29.06 0 0 -7.25 29.06 0 0 -7.31 -36.3 0 0 21.81 29.05 0 0 7.3 -29.05 0 0 7.25 36.3 0zm0 0z"/>
   <path class="fil" d="M363.39 39.7l0 -36.36 -36.3 0 0 36.36 7.25 0 0 -14.55 21.8 0 0 14.55 7.25 0zm-7.25 -21.8l-21.8 0 0 -7.25 21.8 0 0 7.25zm0 0z"/>
   <path class="fil" d="M209.26 96.4l0 -32.44 -54.01 0 0 54.09 10.78 0 0 -21.65 21.66 0 10.78 0 10.79 0zm-10.79 -10.79l-32.44 0 0 -10.79 32.44 0 0 10.79z"/>
   <path class="fil" d="M286.94 118.05l0 -10.79 -43.22 0 0 -32.44 43.22 0 0 -10.86 -54 0 0 54.09 54 0zm0 0z"/>
   <path class="fil" d="M364.63 118.05l0 -54.09 -54.01 0 0 54.09 10.79 0 0 -43.23 10.78 0 0 43.23 10.87 0 0 -43.23 10.78 0 0 43.23 10.79 0zm0 0z"/>
   <path class="fil" d="M188.93 95.15l7.57 0c2.04,3.43 6.18,9.85 9.12,14.24 3.86,5.51 5.83,8.1 8.23,10.7 2.66,2.85 4.94,4.02 7.21,4.67l0 2.85 -0.02 0.16c-1.36,0 -2.5,-0.1 -3.86,-0.2 -7.6,-0.52 -11.66,-2.5 -16.25,-8.94 -3.85,-5.29 -7.6,-11.84 -10.94,-17.13 -0.37,-0.59 -0.71,-1.1 -1.06,-1.53l0 -4.82z"/>
   <line class="str" x1="135.28" y1="120.57" x2="135.28" y2= "1.04" />
   <path class="fil" d="M209.26 63.96l0 32.44 -10.79 0 -1.22 0c2.19,3.58 5.76,9.08 8.37,12.99 3.86,5.51 5.83,8.1 8.23,10.7 2.66,2.85 4.94,4.02 7.21,4.67l0 2.85 -0.02 0.16c-1.36,0 -2.5,-0.1 -3.86,-0.2 -7.6,-0.52 -11.66,-2.5 -16.25,-8.94 -3.85,-5.29 -7.6,-11.84 -10.94,-17.13 -0.37,-0.59 -0.71,-1.1 -1.06,-1.53l0 -3.57 -1.24 0 -21.66 0 0 21.65 -10.78 0 0 -54.09 54.01 0z"/>
  </g>
 </g>
</svg>
